<svg xmlns="http://www.w3.org/2000/svg" viewBox="0 0 200 200">
 <defs>
  <linearGradient id="bg" x1="0" y1="0" x2="0" y2="1"><stop offset="0%" stop-color="#E7F4F1"/><stop offset="100%" stop-color="#CFE7F4"/></linearGradient>
  <clipPath id="cir"><circle cx="100" cy="100" r="100"/></clipPath>
 </defs>
 <g clip-path="url(#cir)">
  <rect width="200" height="200" fill="url(#bg)"/>
  <!-- back hair -->
  <path d="M58 168 Q48 92 100 80 Q152 92 142 168 Z" fill="#3E2C22"/>
  <!-- white coat -->
  <path d="M34 200 Q38 150 72 136 L100 160 L128 136 Q162 150 166 200 Z" fill="#FFFFFF"/>
  <path d="M100 160 L92 200 M100 160 L108 200" stroke="#E4E7EC" stroke-width="1.6"/>
  <!-- teal scrub V -->
  <path d="M83 146 L100 168 L117 146 L108 140 L100 150 L92 140 Z" fill="#0FB5A0"/>
  <!-- neck -->
  <rect x="88" y="118" width="24" height="28" rx="11" fill="#E3A981"/>
  <!-- head -->
  <ellipse cx="100" cy="90" rx="33" ry="37" fill="#F0BE99"/>
  <!-- ears -->
  <circle cx="68" cy="92" r="5" fill="#E3A981"/><circle cx="132" cy="92" r="5" fill="#E3A981"/>
  <!-- front hair -->
  <path d="M66 96 Q60 52 100 50 Q140 52 134 96 Q134 72 118 64 Q100 58 82 64 Q66 72 66 96 Z" fill="#3E2C22"/>
  <!-- brows -->
  <path d="M84 83 Q89 80 95 83" stroke="#3E2C22" stroke-width="2.2" fill="none" stroke-linecap="round"/>
  <path d="M105 83 Q111 80 116 83" stroke="#3E2C22" stroke-width="2.2" fill="none" stroke-linecap="round"/>
  <!-- eyes -->
  <ellipse cx="89.5" cy="91" rx="3.1" ry="4" fill="#3A2A22"/>
  <ellipse cx="110.5" cy="91" rx="3.1" ry="4" fill="#3A2A22"/>
  <!-- nose -->
  <path d="M100 96 L98 103 Q100 105 102 103" stroke="#D2946E" stroke-width="1.6" fill="none" stroke-linecap="round"/>
  <!-- smile -->
  <path d="M91 108 Q100 116 109 108" stroke="#B5745A" stroke-width="2.6" fill="none" stroke-linecap="round"/>
  <!-- stethoscope -->
  <path d="M86 144 C79 172 93 184 100 184" stroke="#33475B" stroke-width="3.4" fill="none" stroke-linecap="round"/>
  <path d="M114 144 C122 166 112 176 106 179" stroke="#33475B" stroke-width="3.4" fill="none" stroke-linecap="round"/>
  <circle cx="106" cy="184" r="7" fill="#C7D0DA" stroke="#33475B" stroke-width="2.2"/>
 </g>
</svg>