<svg width="140" height="42" viewBox="0 0 140 42" fill="none" xmlns="http://www.w3.org/2000/svg">
<path d="M30.6023 32.6454L0.595903 41.9791C0.299764 42.0712 0 41.8471 0 41.5335V34.6844C0 34.4796 0.131864 34.2989 0.325331 34.2388L30.3317 24.9052C30.6278 24.8131 30.9276 25.0372 30.9276 25.3507V32.1999C30.9276 32.4046 30.7955 32.5853 30.6023 32.6454Z" fill="#5200D4"/>
<path d="M36.3061 20.2035L6.29976 29.5372C6.00362 29.6293 5.70386 29.4052 5.70386 29.0916V22.2425C5.70386 22.0377 5.83572 21.857 6.02919 21.7969L36.0355 12.4633C36.3317 12.3712 36.6314 12.5953 36.6314 12.9088V19.758C36.6314 19.9627 36.4996 20.1434 36.3061 20.2035Z" fill="#3366FF"/>
<path d="M42.0101 7.76116L12.0037 17.0948C11.7076 17.1869 11.4078 16.9628 11.4078 16.6493V9.80008C11.4078 9.59534 11.5397 9.41463 11.7332 9.35453L41.7393 0.0208756C42.0355 -0.07121 42.3352 0.152892 42.3352 0.466431V7.3156C42.3352 7.52015 42.2034 7.70106 42.0101 7.76116Z" fill="#80E8FF"/>
<path d="M87.7489 8.79443C81.0778 8.79443 74.6696 14.2495 73.4756 21.1025C72.2874 27.9216 76.7947 33.3768 83.4658 33.3768C90.1369 33.3768 96.5453 27.9213 97.7333 21.1025C98.9273 14.2495 94.42 8.79443 87.7489 8.79443ZM84.25 28.876C80.0386 28.876 77.3312 25.4666 78.0916 21.1025C78.858 16.7044 82.7536 13.295 86.9649 13.295C91.1763 13.295 93.8837 16.7044 93.1174 21.1025C92.3569 25.4664 88.4613 28.876 84.25 28.876Z" fill="#140D26"/>
<path d="M65.8863 20.148C67.7235 19.4661 69.3307 17.5908 69.7643 15.102C70.3286 11.863 68.4912 9.06738 63.8081 9.06738H55.7894H53.2036C52.8443 9.06738 52.5644 9.47953 52.7239 9.77412L54.5672 13.1799L51.2144 32.4221C51.1608 32.7291 51.3275 32.9337 51.6309 32.9337H59.6496C65.5455 32.9337 68.7577 30.5472 69.5418 26.0464C70.0824 22.944 68.2665 20.7959 65.8863 20.148ZM59.1808 13.1927H62.6507C64.504 13.1927 65.6318 13.8746 65.317 15.6815C64.9842 17.5908 63.6172 18.4774 61.7299 18.4774H58.2599L59.1808 13.1927ZM60.5028 28.8083H56.4599L57.5887 22.3302H61.6316C64.0907 22.3302 65.3892 23.3871 65.015 25.5352C64.6228 27.7852 62.9619 28.8083 60.5028 28.8083Z" fill="#140D26"/>
<path d="M113.695 28.8083H106.047L109.397 9.57895C109.451 9.27213 109.285 9.06738 108.981 9.06738L105.157 10.3228C104.803 10.4307 104.617 10.5275 104.563 10.8343L100.802 32.4223C100.748 32.7293 100.915 32.9339 101.218 32.9339H112.977C113.279 32.9339 113.517 32.7295 113.571 32.4223L114.111 29.3197C114.165 29.0127 113.998 28.8083 113.695 28.8083Z" fill="#140D26"/>
<path d="M129.492 9.06738H122.855H120.269C119.91 9.06738 119.63 9.47953 119.789 9.77412L121.633 13.1807L118.28 32.4221C118.227 32.7291 118.393 32.9337 118.696 32.9337H125.334C133.42 32.9337 138.619 27.6489 139.778 21.0008C140.936 14.3521 137.578 9.06738 129.492 9.06738ZM126.053 28.8083H123.526L126.247 13.1929H128.774C133.894 13.1929 135.95 16.0912 135.095 21.0008C134.239 25.9105 131.173 28.8083 126.053 28.8083Z" fill="#140D26"/>
</svg>
